<svg width="1287" height="771" viewBox="0 0 1287 771" fill="none" xmlns="http://www.w3.org/2000/svg">
<g clip-path="url(#clip0_853_316)">
<rect width="1287" height="771" fill="black"/>
<g filter="url(#filter0_f_853_316)">
<path d="M1384 616.233C1384 784.956 1797.36 1014.73 1632.5 1014.73C1467.64 1014.73 -18.5 833.455 -18.5 664.732C134.5 722.732 381 502.732 896 100.732C1265.5 -251.768 1384 447.51 1384 616.233Z" fill="url(#paint0_linear_853_316)"/>
</g>
<g filter="url(#filter1_f_853_316)">
<ellipse cx="862" cy="818" rx="295" ry="238" fill="black"/>
</g>
<g filter="url(#filter2_f_853_316)">
<path d="M485 670C485 825.192 182.901 992.5 25.5 992.5C-131.901 992.5 26 63.192 26 -92C26 -247.192 241.099 442 398.5 442C555.901 442 485 514.808 485 670Z" fill="url(#paint1_linear_853_316)"/>
</g>
<g filter="url(#filter3_f_853_316)">
<path d="M1021.5 419C509 1042 1803.9 906.5 1646.5 906.5C1489.1 906.5 262 3229.19 262 3074C262 2918.81 -175.5 178 467.5 498.5C624.901 498.5 1072.5 104 1021.5 419Z" fill="url(#paint2_linear_853_316)"/>
</g>
</g>
<defs>
<filter id="filter0_f_853_316" x="-218.5" y="-197.238" width="2089.83" height="1411.97" filterUnits="userSpaceOnUse" color-interpolation-filters="sRGB">
<feFlood flood-opacity="0" result="BackgroundImageFix"/>
<feBlend mode="normal" in="SourceGraphic" in2="BackgroundImageFix" result="shape"/>
<feGaussianBlur stdDeviation="100" result="effect1_foregroundBlur_853_316"/>
</filter>
<filter id="filter1_f_853_316" x="367" y="380" width="990" height="876" filterUnits="userSpaceOnUse" color-interpolation-filters="sRGB">
<feFlood flood-opacity="0" result="BackgroundImageFix"/>
<feBlend mode="normal" in="SourceGraphic" in2="BackgroundImageFix" result="shape"/>
<feGaussianBlur stdDeviation="100" result="effect1_foregroundBlur_853_316"/>
</filter>
<filter id="filter2_f_853_316" x="-244.327" y="-314.763" width="945.252" height="1507.26" filterUnits="userSpaceOnUse" color-interpolation-filters="sRGB">
<feFlood flood-opacity="0" result="BackgroundImageFix"/>
<feBlend mode="normal" in="SourceGraphic" in2="BackgroundImageFix" result="shape"/>
<feGaussianBlur stdDeviation="100" result="effect1_foregroundBlur_853_316"/>
</filter>
<filter id="filter3_f_853_316" x="-83.3618" y="97.0057" width="1943.23" height="3184.44" filterUnits="userSpaceOnUse" color-interpolation-filters="sRGB">
<feFlood flood-opacity="0" result="BackgroundImageFix"/>
<feBlend mode="normal" in="SourceGraphic" in2="BackgroundImageFix" result="shape"/>
<feGaussianBlur stdDeviation="100" result="effect1_foregroundBlur_853_316"/>
</filter>
<linearGradient id="paint0_linear_853_316" x1="858.5" y1="232.47" x2="1110.5" y2="599.97" gradientUnits="userSpaceOnUse">
<stop stop-color="#2F00FF"/>
<stop offset="1" stop-color="white"/>
</linearGradient>
<linearGradient id="paint1_linear_853_316" x1="446.5" y1="355.5" x2="-347.5" y2="369.5" gradientUnits="userSpaceOnUse">
<stop stop-color="#1100FF"/>
<stop offset="1" stop-color="white"/>
</linearGradient>
<linearGradient id="paint2_linear_853_316" x1="898.891" y1="297.006" x2="231.5" y2="819" gradientUnits="userSpaceOnUse">
<stop stop-color="white"/>
<stop offset="1"/>
</linearGradient>
<clipPath id="clip0_853_316">
<rect width="1287" height="771" fill="white"/>
</clipPath>
</defs>
</svg>
