<svg width="250" height="250" viewBox="0 0 250 250" fill="none" xmlns="http://www.w3.org/2000/svg">
<mask id="path-1-inside-1_1022_472" fill="white">
<path d="M125 46C125 89.2896 159.819 124.447 202.979 124.993L204 125C160.37 125 125.001 160.37 125.001 204H125C125 160.37 89.6303 125 46 125V124.999C89.6301 124.999 124.999 89.6301 124.999 46H125Z"/>
</mask>
<path d="M125 46L126 46V45H125V46ZM202.979 124.993L202.967 125.993L202.973 125.993L202.979 124.993ZM204 125V126L204.007 124L204 125ZM125.001 204V205H126.001V204H125.001ZM125 204H124V205H125V204ZM46 125H45V126H46L46 125ZM46 124.999L46 123.999L45 123.999V124.999H46ZM124.999 46V45H123.999V46L124.999 46ZM125 46L124 46C124 89.8377 159.26 125.44 202.967 125.993L202.979 124.993L202.992 123.993C160.379 123.454 126 88.7416 126 46L125 46ZM202.979 124.993L202.973 125.993L203.993 126L204 125L204.007 124L202.986 123.993L202.979 124.993ZM204 125V124C159.818 124 124.001 159.817 124.001 204H125.001H126.001C126.001 160.922 160.922 126 204 126V125ZM125.001 204V203H125V204V205H125.001V204ZM125 204H126C126 159.817 90.1826 124 46 124L46 125L46 126C89.078 126 124 160.922 124 204H125ZM46 125H47V124.999H46H45V125H46ZM46 124.999L46 125.999C90.1824 125.999 125.999 90.1824 125.999 46L124.999 46L123.999 46C123.999 89.0779 89.0778 123.999 46 123.999L46 124.999ZM124.999 46V47H125V46V45H124.999V46Z" fill="white" fill-opacity="0.5" mask="url(#path-1-inside-1_1022_472)"/>
</svg>
