<svg width="63" height="65" viewBox="0 0 63 65" fill="none" xmlns="http://www.w3.org/2000/svg">
<path d="M56.3041 53.8935H49.1936L49.1936 22.5238H56.3041L56.3041 53.8935ZM25.3007 25.6608H28.4377L15.6388 53.8935H8.11007L23.0002 22.5238H30.9891L45.8374 53.8935L38.225 53.8935L25.3007 25.6608Z" fill="white"/>
<path d="M40.9526 0.76001C41.1406 8.16514 47.1089 14.1339 54.5141 14.3215L54.8735 14.3264C47.1825 14.3264 40.9478 20.5613 40.9477 28.2522C40.9475 20.5613 34.7118 14.3265 27.0209 14.3264L27.3803 14.3215C34.7857 14.134 40.7548 8.16522 40.9428 0.76001L40.9477 0.400635L40.9526 0.76001ZM31.3813 0.000244141C31.3815 2.93497 33.7601 5.31313 36.6948 5.31372V5.3147C33.7601 5.31529 31.3814 7.69437 31.3813 10.6292C31.3812 7.69406 29.0009 5.31479 26.0659 5.3147H26.0668C28.9102 5.3146 31.232 3.08164 31.3745 0.273682L31.3813 0.000244141Z" fill="white"/>
</svg>
